<?xml version="1.0" standalone="no"?>
<!DOCTYPE svg PUBLIC "-//W3C//DTD SVG 20010904//EN"
 "http://www.w3.org/TR/2001/REC-SVG-20010904/DTD/svg10.dtd">
<svg version="1.0" xmlns="http://www.w3.org/2000/svg"
 width="512.000000pt" height="512.000000pt" viewBox="0 0 512.000000 512.000000"
 preserveAspectRatio="xMidYMid meet">
<metadata>
Created by potrace 1.14, written by Peter Selinger 2001-2017
</metadata>
<g transform="translate(0.000000,512.000000) scale(0.100000,-0.100000)"
fill="#000000" stroke="none">
<path d="M1778 3966 c-664 -674 -666 -676 -687 -736 -10 -30 -28 -75 -40 -100
-18 -40 -21 -64 -21 -205 l0 -160 157 -160 c87 -88 267 -270 400 -405 l243
-245 -101 3 c-85 3 -103 1 -120 -14 -17 -16 -20 -16 -37 -1 -15 13 -43 16
-168 16 -83 0 -182 2 -220 6 -78 7 -373 -18 -404 -35 -24 -13 -35 -51 -25 -87
5 -16 7 -40 6 -55 -3 -37 38 -78 79 -78 l30 0 0 -170 c0 -160 1 -171 21 -191
20 -20 29 -21 106 -16 122 7 118 1 116 207 l-2 170 24 0 25 0 0 -159 c0 -88 4
-171 9 -184 5 -14 21 -27 35 -31 15 -4 101 -3 193 0 138 6 169 10 184 25 14
14 19 15 30 4 8 -7 51 -16 96 -20 74 -6 83 -5 102 14 18 18 21 33 21 99 0 42
3 108 7 146 l6 69 18 -34 c14 -27 18 -58 19 -146 0 -148 4 -153 128 -153 119
0 122 3 122 141 0 57 4 111 9 119 8 11 27 -2 94 -65 79 -74 85 -83 86 -121 1
-58 23 -74 100 -74 54 0 64 -3 68 -20 5 -19 6 -19 42 -1 20 10 47 21 61 24 14
4 45 23 69 44 l44 37 101 -52 c56 -29 109 -52 119 -52 9 0 54 19 99 41 57 29
84 37 86 29 12 -34 42 -48 116 -55 59 -6 81 -4 98 7 19 13 23 12 44 -9 13 -13
30 -23 38 -23 8 0 44 22 79 49 l64 48 79 -43 c44 -24 86 -44 94 -43 8 0 56 17
105 39 l90 39 20 -24 c27 -32 37 -33 223 -37 198 -4 192 -8 192 124 0 75 -3
91 -20 108 -11 11 -24 20 -30 20 -6 0 -10 26 -10 58 0 53 3 60 25 70 13 6 27
23 31 37 10 40 0 173 -14 187 -17 17 -351 24 -381 8 -12 -6 -24 -22 -27 -36
l-6 -24 -85 45 c-47 25 -90 45 -97 45 -6 0 -52 -18 -102 -40 l-90 -41 -89 41
c-80 37 -94 41 -140 35 -27 -4 -58 -9 -68 -11 -9 -3 102 110 248 252 146 141
275 273 287 293 13 20 25 56 28 81 5 42 7 45 33 42 27 -3 27 -2 27 57 0 37 5
63 13 68 6 4 50 22 97 39 l85 31 3 66 3 65 -41 7 c-40 7 -43 11 -52 70 -2 12
-14 21 -34 26 -52 10 -54 14 -54 118 l0 97 -257 255 c-303 300 -600 590 -698
683 l-70 66 -390 -2 -390 -1 -307 -311z m1105 -393 c-11 -32 -25 -44 -97 -77
-51 -24 -87 -50 -128 -94 -32 -33 -58 -65 -58 -71 0 -14 27 -14 105 -1 l59 10
161 -72 c88 -39 169 -79 179 -89 19 -17 19 -18 -9 -25 -19 -5 -48 0 -88 15
-33 12 -62 19 -65 17 -5 -6 44 -68 111 -141 26 -29 47 -57 47 -63 0 -28 -52
-10 -106 38 -84 73 -174 120 -232 120 -26 0 -58 -6 -72 -13 -32 -16 -29 -41
12 -124 17 -34 28 -69 25 -77 -3 -8 -42 -34 -86 -58 -45 -24 -81 -47 -81 -53
0 -6 -29 -10 -67 -10 -38 0 -104 -4 -148 -8 l-80 -9 -58 45 c-32 25 -89 79
-127 120 -81 87 -123 108 -280 144 -58 13 -131 30 -162 37 -84 19 -105 37
-114 91 -8 58 0 123 19 142 12 12 35 4 172 -61 87 -42 177 -83 201 -91 l43
-14 111 65 c61 36 157 84 213 106 56 21 143 55 192 75 103 40 124 48 255 96
125 46 122 45 142 46 12 1 16 -4 11 -16z m-74 -929 c21 -27 27 -60 13 -80 -17
-26 -153 -113 -185 -119 -33 -6 -36 -4 -60 36 l-26 43 27 32 c32 38 158 114
189 114 12 0 31 -12 42 -26z m1 -253 c135 -5 155 -8 158 -23 2 -12 -5 -19 -25
-23 -126 -27 -235 -82 -267 -136 -37 -63 -4 -135 87 -184 16 -10 27 -24 27
-37 0 -19 -4 -20 -52 -15 -28 4 -56 11 -62 17 -14 14 -85 13 -148 -3 -29 -8
-72 -12 -95 -9 -36 3 -43 8 -43 26 0 14 11 28 34 40 49 26 93 76 101 114 6 28
2 36 -24 61 -31 29 -73 41 -152 41 -53 0 -163 50 -179 81 -10 18 -7 19 59 19
39 0 96 7 128 15 31 8 80 15 108 16 27 1 61 5 75 10 14 4 45 5 70 2 25 -3 115
-8 200 -12z m283 -543 c26 -10 27 -12 27 -85 0 -42 -4 -72 -9 -68 -10 5 -21
-25 -41 -105 -6 -25 -15 -54 -20 -65 -4 -11 -11 -28 -14 -37 -4 -15 -17 -18
-66 -18 -59 0 -60 0 -42 19 41 46 42 50 42 155 0 100 -1 106 -24 121 -28 18
-76 11 -76 -11 0 -8 -6 -25 -14 -37 -8 -12 -17 -49 -21 -82 -4 -33 -9 -75 -11
-93 -3 -23 2 -38 16 -52 20 -20 20 -20 -40 -20 l-60 0 0 53 c0 28 -3 109 -7
178 l-6 127 93 50 93 50 76 -35 c42 -19 88 -39 104 -45z m405 -88 c2 -79 0
-100 -11 -100 -7 0 -29 -13 -47 -30 -18 -16 -37 -30 -40 -30 -19 0 -27 -47
-15 -87 13 -43 13 -43 -14 -43 -20 0 -31 10 -51 43 -17 29 -25 37 -28 25 -2
-10 -15 -18 -30 -20 -16 -2 -31 -12 -37 -25 -6 -14 -18 -23 -32 -23 l-23 0 0
214 0 214 93 14 92 14 70 -33 70 -33 3 -100z m-2328 80 l0 -80 -60 0 c-57 0
-60 -1 -60 -24 0 -14 -4 -27 -9 -31 -5 -3 -13 -31 -16 -63 -4 -31 -14 -83 -22
-114 -15 -56 -17 -58 -49 -58 l-33 0 -3 143 -3 142 -30 3 c-72 6 -73 7 -77 71
l-3 60 70 6 c39 3 106 10 150 14 44 5 95 9 113 10 l32 1 0 -80z m801 -8 l36
-77 38 83 c28 61 42 81 54 78 9 -2 37 -7 64 -11 26 -3 47 -8 47 -10 0 -13 -66
-146 -90 -182 -17 -24 -30 -48 -30 -54 0 -5 -3 -9 -7 -9 -13 0 -62 -95 -71
-136 -7 -34 -12 -39 -38 -42 -29 -3 -32 0 -37 35 -4 21 -7 54 -7 74 0 22 -22
84 -60 165 -33 71 -58 133 -57 139 4 10 108 35 116 28 3 -2 21 -38 42 -81z
m721 13 l-4 -74 -91 -3 c-87 -3 -92 -4 -92 -25 0 -12 -4 -25 -8 -29 -16 -16
-5 -24 36 -24 59 0 77 -21 65 -76 -9 -41 -9 -42 -60 -46 -53 -6 -84 -30 -90
-73 -2 -15 -12 -21 -40 -23 l-38 -3 0 220 0 220 123 4 c67 1 140 4 162 5 l40
2 -3 -75z m1129 35 c56 -29 83 -48 89 -66 18 -45 13 -51 -56 -62 -60 -10 -67
-9 -85 9 -24 24 -41 24 -67 2 -27 -25 -50 -85 -34 -91 17 -5 15 -22 -2 -22 -9
0 -21 -21 -30 -54 -20 -68 -20 -85 1 -108 15 -17 14 -18 -40 -18 l-57 0 0 184
0 183 88 41 c48 22 93 41 100 41 7 1 49 -17 93 -39z m-2471 -100 c0 -97 -3
-130 -12 -130 -8 0 -21 -35 -33 -88 -20 -85 -21 -87 -51 -90 l-31 -3 -6 128
c-4 70 -7 170 -7 221 l0 92 70 0 70 0 0 -130z m234 18 l54 -113 1 113 1 112
75 0 75 0 0 -78 c0 -43 -4 -82 -9 -87 -6 -6 -19 -53 -31 -105 -11 -52 -24
-104 -29 -115 -5 -11 -12 -28 -15 -37 -4 -14 -16 -18 -49 -18 l-45 0 -28 70
c-30 73 -44 87 -44 45 0 -18 -5 -25 -18 -25 -19 0 -38 -29 -44 -65 -2 -15 -12
-21 -41 -23 l-37 -3 0 215 0 215 38 4 c98 10 87 18 146 -105z m2706 68 c0 -24
-3 -58 -6 -75 l-6 -31 -79 0 c-76 0 -79 -1 -85 -26 -7 -29 7 -44 42 -44 28 0
44 -19 44 -51 0 -46 -10 -59 -45 -59 -39 0 -95 -26 -95 -45 0 -39 11 -45 80
-45 38 0 72 -4 75 -10 4 -6 -38 -10 -119 -10 l-126 0 0 220 0 220 160 0 160 0
0 -44z m-435 -172 c40 -10 44 -33 21 -129 l-21 -90 -75 -2 c-61 -3 -72 -1 -60
10 24 20 60 75 60 92 0 9 -9 15 -24 15 -22 0 -24 5 -28 51 -1 28 -1 53 1 55 6
6 102 5 126 -2z"/>
<path d="M2375 3041 c-51 -23 -66 -41 -72 -89 -6 -47 3 -55 67 -59 49 -3 140
-38 140 -53 0 -6 9 -10 20 -10 17 0 20 7 20 42 0 29 8 54 26 79 32 46 23 69
-36 93 -53 21 -115 20 -165 -3z"/>
<path d="M3290 1751 c0 -47 18 -54 60 -21 20 16 23 22 14 37 -6 10 -25 19 -43
21 -30 3 -31 2 -31 -37z"/>
<path d="M2369 1285 c-4 -3 -91 -7 -195 -9 -104 -2 -208 -9 -231 -15 -35 -9
-54 -9 -102 4 -94 24 -114 21 -154 -25 -18 -22 -42 -55 -52 -74 l-18 -34 31
-51 c36 -57 39 -71 17 -71 -36 0 -50 -143 -17 -172 19 -18 190 -43 221 -33 11
3 35 33 52 66 18 32 36 59 40 59 5 0 9 -17 9 -38 0 -56 22 -72 102 -72 67 0
98 16 98 52 0 12 18 6 80 -23 45 -22 88 -39 96 -39 8 0 36 11 63 25 48 24 49
24 66 5 28 -31 156 -28 232 5 31 14 54 23 50 19 -4 -4 0 -16 10 -26 22 -25
138 -26 165 -1 18 16 21 15 64 -5 57 -28 79 -27 132 3 41 23 43 24 61 6 12
-12 46 -22 95 -30 139 -20 142 -19 190 76 32 65 32 79 0 127 l-26 38 21 22
c25 26 37 100 23 137 -9 22 -24 30 -107 53 -104 29 -121 26 -151 -19 l-15 -23
-75 34 c-41 19 -82 34 -90 34 -8 0 -36 -11 -63 -25 -48 -24 -49 -24 -66 -5
-26 29 -127 28 -156 -1 l-20 -20 -55 21 c-44 16 -77 20 -162 19 -59 -1 -118 2
-132 5 -14 4 -28 4 -31 1z m-542 -112 c34 -23 30 -46 -7 -41 -16 3 -30 1 -30
-4 0 -4 -8 -8 -18 -8 -10 0 -26 -10 -36 -22 l-19 -21 -18 24 c-24 31 -24 36 6
75 24 31 27 32 62 22 20 -5 47 -17 60 -25z m310 26 c8 -8 8 -20 1 -39 -7 -22
-19 -30 -54 -39 -24 -6 -44 -16 -44 -21 0 -6 -4 -10 -10 -10 -5 0 -10 6 -10
14 0 9 -16 17 -41 21 -38 7 -40 9 -37 38 3 31 5 32 58 38 94 10 126 9 137 -2z
m120 -1 c15 -25 -7 -108 -29 -108 -4 0 -8 27 -8 60 0 46 3 60 14 60 8 0 18 -6
23 -12z m152 3 c21 -13 22 -40 4 -78 -23 -49 -33 -40 -33 27 0 61 4 67 29 51z
m252 -29 c43 -24 49 -30 43 -52 -7 -32 -28 -45 -32 -21 -4 22 -64 49 -70 31
-2 -5 -17 -10 -33 -10 -17 0 -32 -6 -35 -15 -13 -33 -24 -12 -24 46 l0 62 51
-7 c28 -4 73 -19 100 -34z m168 28 c20 -10 19 -45 -1 -87 -19 -38 -28 -26 -28
37 0 64 1 65 29 50z m228 -2 c15 -7 41 -25 57 -39 28 -26 28 -27 11 -53 -20
-30 -40 -35 -33 -8 9 31 -25 45 -75 31 -23 -7 -49 -18 -58 -26 -25 -21 -30
-16 -27 24 2 30 10 42 37 60 39 26 50 28 88 11z m271 -5 c58 -14 88 -71 32
-59 -17 3 -30 1 -30 -4 0 -6 -8 -10 -18 -10 -10 0 -26 -10 -36 -21 l-18 -22
-18 28 c-18 28 -18 29 7 67 17 25 32 37 41 33 7 -3 25 -8 40 -12z m-1372 -127
c3 -8 4 -31 2 -52 l-3 -38 -27 42 c-26 38 -26 42 -10 51 23 14 32 13 38 -3z"/>
</g>
</svg>
