<?xml version="1.0" standalone="no"?>
<!DOCTYPE svg PUBLIC "-//W3C//DTD SVG 20010904//EN"
 "http://www.w3.org/TR/2001/REC-SVG-20010904/DTD/svg10.dtd">
<svg version="1.0" xmlns="http://www.w3.org/2000/svg"
 width="364.000000pt" height="364.000000pt" viewBox="0 0 364.000000 364.000000"
 preserveAspectRatio="xMidYMid meet">
<metadata>
Created by potrace 1.14, written by Peter Selinger 2001-2017
</metadata>
<g transform="translate(0.000000,364.000000) scale(0.100000,-0.100000)"
fill="#000000" stroke="none">
<path d="M1050 2912 c-682 -689 -676 -682 -695 -742 -10 -30 -26 -72 -36 -92
-16 -32 -19 -61 -19 -208 l0 -172 237 -240 c131 -133 308 -311 394 -397 85
-86 269 -274 408 -418 140 -144 262 -265 272 -268 11 -4 36 7 68 30 28 20 55
34 61 30 6 -3 10 -47 10 -100 l0 -93 38 18 c20 10 51 24 69 32 17 7 222 202
455 432 232 230 461 453 507 495 46 42 119 116 162 165 72 81 79 92 79 131 0
48 18 70 50 60 19 -6 20 -2 20 54 0 71 2 73 123 116 l78 28 -3 60 -3 60 -40
11 c-36 11 -40 15 -43 48 -3 32 -7 37 -35 43 -54 12 -57 19 -57 125 l0 97
-347 339 c-192 186 -420 409 -508 496 l-161 158 -395 0 -394 0 -295 -298z
m1110 -372 c0 -37 -35 -71 -104 -104 -54 -25 -90 -50 -130 -92 -83 -87 -79
-92 58 -64 36 8 55 2 220 -71 100 -44 185 -85 191 -90 29 -29 -76 -39 -131
-13 -65 31 -54 7 40 -84 l95 -92 -23 -16 c-31 -20 -64 -11 -107 29 -70 65
-194 137 -235 137 -40 0 -104 -19 -104 -30 0 -5 16 -35 36 -66 20 -31 37 -70
38 -87 1 -28 -6 -34 -86 -81 -48 -28 -87 -58 -88 -66 0 -20 79 -140 92 -140 6
0 6 -6 -2 -15 -15 -18 -30 -19 -30 -2 -1 6 -22 44 -48 82 l-48 70 -55 -2 c-29
-2 -89 -8 -131 -14 l-77 -11 -48 38 c-26 21 -88 79 -138 129 -99 101 -132 118
-285 149 -203 41 -258 60 -271 93 -13 36 -11 144 4 173 16 32 24 30 150 -29
172 -82 231 -108 254 -115 21 -7 49 5 128 53 82 49 174 92 290 136 39 14 84
32 100 40 17 8 50 21 75 29 65 22 182 65 205 75 31 14 149 59 158 60 4 1 7 -4
7 -9z m-55 -950 l28 -41 -20 -27 c-24 -33 -156 -124 -202 -140 -39 -14 -49 -8
-81 44 -17 26 -19 38 -11 53 28 52 182 145 247 150 6 1 24 -17 39 -39z m165
-268 c0 -27 -3 -29 -65 -40 -245 -46 -332 -186 -175 -284 48 -30 70 -62 53
-78 -20 -18 -91 -18 -133 1 -51 23 -98 24 -147 4 -19 -8 -62 -15 -94 -15 l-59
0 0 34 c0 28 5 35 25 40 13 3 43 23 65 45 32 30 40 45 40 74 0 57 -40 84 -137
92 -43 3 -98 13 -123 22 -45 16 -110 71 -110 92 0 7 39 11 119 11 93 0 121 3
131 15 11 13 58 15 311 15 l299 0 0 -28z"/>
<path d="M1656 1984 c-63 -23 -77 -41 -74 -93 l3 -46 70 -6 c85 -8 99 -13 113
-44 15 -32 44 -23 36 10 -4 16 4 40 22 73 33 59 28 76 -28 102 -50 23 -88 24
-142 4z"/>
</g>
</svg>
